<svg version="1.1" xmlns="http://www.w3.org/2000/svg" xmlns:xlink="http://www.w3.org/1999/xlink" width="64px" height="64px" viewBox="0,0,256,256"><g fill="#1e4776" fill-rule="nonzero" stroke="none" stroke-width="1" stroke-linecap="butt" stroke-linejoin="miter" stroke-miterlimit="10" stroke-dasharray="" stroke-dashoffset="0" font-family="none" font-weight="none" font-size="none" text-anchor="none" style="mix-blend-mode: normal"><g transform="scale(4,4)"><g><path d="M46.57,19.17c-0.72,-0.58 -1.69,-0.59 -1.87,-0.59c-1.35,0.02 -2.92,0.54 -12.13,4.37c-3.05,1.27 -9.24,3.93 -18.39,7.92c-1.92,0.77 -2.83,1.55 -2.95,2.54c-0.22,1.79 1.62,2.37 3.41,2.93l0.68,0.22c1.35,0.44 3.82,1.18 5.19,1.21c1.23,0 2.58,-0.46 4,-1.43c4.87,-3.29 7.97,-5.36 9.92,-6.65c-1.56,1.49 -3.38,3.19 -4.34,4.08c-0.78,0.72 -1.33,1.24 -1.45,1.36c-0.24,0.25 -0.48,0.48 -0.71,0.71c-1.02,0.98 -1.97,1.9 -1.86,3.19c0.11,1.23 1.23,2.1 2.06,2.65c1.28,0.84 2.3,1.54 3.33,2.24c1.13,0.77 2.25,1.54 3.71,2.49c0.36,0.24 0.7,0.48 1.03,0.72c1.27,0.9 2.57,1.83 4.2,1.83c0.13,0 0.26,-0.01 0.4,-0.02c1.06,-0.1 2.45,-0.88 3.05,-4.04c1.01,-5.39 3.09,-17.59 3.58,-22.76c0.06,-0.58 -0.02,-1.24 -0.06,-1.51c-0.04,-0.23 -0.16,-0.94 -0.8,-1.46zM45.45,21.94c-0.48,5.04 -2.59,17.39 -3.56,22.58c-0.32,1.73 -0.86,2.38 -1.26,2.42c-1.08,0.1 -2.04,-0.58 -3.26,-1.45c-0.35,-0.25 -0.72,-0.51 -1.1,-0.76c-1.45,-0.95 -2.56,-1.71 -3.68,-2.47c-1.03,-0.7 -2.06,-1.4 -3.35,-2.25c-1.08,-0.71 -1.16,-1.09 -1.17,-1.17c-0.03,-0.33 0.68,-1.02 1.25,-1.57c0.25,-0.24 0.51,-0.49 0.77,-0.76c0.11,-0.11 0.63,-0.6 1.37,-1.28c7.06,-6.56 7.45,-7.14 7.58,-7.67c0.08,-0.35 0.08,-1.06 -0.46,-1.53c-0.32,-0.29 -0.69,-0.36 -0.99,-0.36c-0.24,0 -0.43,0.05 -0.55,0.07c-0.31,0.07 -0.6,0.14 -13.64,8.94c-1.08,0.74 -2.03,1.13 -2.83,1.09c-0.8,-0.02 -2.53,-0.43 -4.61,-1.11l-0.7,-0.22c-0.73,-0.23 -1.7,-0.53 -1.99,-0.78c0.13,-0.14 0.52,-0.47 1.69,-0.93l0.03,-0.01c9.15,-3.99 15.33,-6.65 18.37,-7.91c8.11,-3.37 10.34,-4.2 11.4,-4.22c0.19,-0.03 0.47,0.06 0.57,0.14c0.03,0.03 0.06,0.07 0.09,0.25c0.01,0.17 0.06,0.64 0.03,0.96z"></path><path d="M32,0.25c-17.51,0 -31.75,14.24 -31.75,31.75c0,17.51 14.24,31.75 31.75,31.75c17.51,0 31.75,-14.24 31.75,-31.75c0,-17.51 -14.24,-31.75 -31.75,-31.75zM32,61.75c-16.4,0 -29.75,-13.35 -29.75,-29.75c0,-16.4 13.35,-29.75 29.75,-29.75c16.4,0 29.75,13.35 29.75,29.75c0,16.4 -13.35,29.75 -29.75,29.75z"></path></g></g></g></svg>