<?xml version="1.0" encoding="UTF-8"?>
<svg xmlns="http://www.w3.org/2000/svg" xmlns:xlink="http://www.w3.org/1999/xlink" width="30px" height="30px" viewBox="0 0 30 30" version="1.1">
<g id="surface1">
<path style=" stroke:none;fill-rule:nonzero;fill:rgb(100%,100%,100%);fill-opacity:1;" d="M 21.828125 8.984375 C 21.492188 8.714844 21.039062 8.710938 20.953125 8.710938 C 20.320312 8.71875 19.585938 8.960938 15.265625 10.757812 C 13.835938 11.351562 10.9375 12.601562 6.648438 14.46875 C 5.746094 14.832031 5.320312 15.195312 5.265625 15.660156 C 5.160156 16.5 6.023438 16.773438 6.863281 17.035156 L 7.179688 17.136719 C 7.8125 17.34375 8.972656 17.691406 9.613281 17.703125 C 10.191406 17.703125 10.824219 17.488281 11.488281 17.035156 C 13.773438 15.492188 15.226562 14.523438 16.140625 13.917969 C 15.40625 14.617188 14.554688 15.414062 14.105469 15.828125 C 13.738281 16.167969 13.480469 16.410156 13.425781 16.46875 C 13.3125 16.585938 13.199219 16.691406 13.09375 16.800781 C 12.613281 17.257812 12.167969 17.691406 12.21875 18.296875 C 12.273438 18.871094 12.796875 19.28125 13.1875 19.539062 C 13.785156 19.929688 14.265625 20.257812 14.746094 20.585938 C 15.277344 20.949219 15.800781 21.308594 16.484375 21.753906 C 16.65625 21.867188 16.8125 21.980469 16.96875 22.09375 C 17.5625 22.515625 18.171875 22.949219 18.9375 22.949219 C 19 22.949219 19.058594 22.945312 19.125 22.941406 C 19.621094 22.894531 20.273438 22.527344 20.554688 21.046875 C 21.027344 18.519531 22.003906 12.800781 22.234375 10.378906 C 22.261719 10.105469 22.222656 9.796875 22.203125 9.671875 C 22.1875 9.5625 22.128906 9.230469 21.828125 8.984375 Z M 21.304688 10.285156 C 21.078125 12.648438 20.089844 18.4375 19.636719 20.867188 C 19.484375 21.679688 19.234375 21.984375 19.046875 22.003906 C 18.539062 22.050781 18.089844 21.730469 17.515625 21.324219 C 17.351562 21.207031 17.179688 21.085938 17 20.96875 C 16.320312 20.523438 15.800781 20.164062 15.277344 19.808594 C 14.792969 19.480469 14.3125 19.152344 13.707031 18.753906 C 13.199219 18.421875 13.164062 18.242188 13.15625 18.207031 C 13.144531 18.050781 13.476562 17.726562 13.742188 17.46875 C 13.859375 17.359375 13.984375 17.242188 14.105469 17.113281 C 14.15625 17.0625 14.398438 16.832031 14.746094 16.515625 C 18.054688 13.4375 18.238281 13.167969 18.300781 12.917969 C 18.335938 12.753906 18.335938 12.421875 18.085938 12.203125 C 17.933594 12.066406 17.761719 12.03125 17.621094 12.03125 C 17.507812 12.03125 17.417969 12.054688 17.363281 12.066406 C 17.21875 12.097656 17.082031 12.132812 10.96875 16.257812 C 10.460938 16.601562 10.015625 16.785156 9.640625 16.765625 C 9.265625 16.757812 8.457031 16.566406 7.480469 16.246094 L 7.152344 16.144531 C 6.8125 16.035156 6.355469 15.894531 6.21875 15.777344 C 6.28125 15.710938 6.464844 15.558594 7.011719 15.34375 L 7.027344 15.335938 C 11.316406 13.46875 14.210938 12.21875 15.636719 11.628906 C 19.4375 10.050781 20.484375 9.660156 20.980469 9.652344 C 21.070312 9.636719 21.203125 9.679688 21.25 9.71875 C 21.261719 9.730469 21.277344 9.75 21.289062 9.835938 C 21.296875 9.914062 21.320312 10.132812 21.304688 10.285156 Z M 21.304688 10.285156 "/>
<path style=" stroke:none;fill-rule:nonzero;fill:rgb(100%,100%,100%);fill-opacity:1;" d="M 15 0.117188 C 6.792969 0.117188 0.117188 6.792969 0.117188 15 C 0.117188 23.207031 6.792969 29.882812 15 29.882812 C 23.207031 29.882812 29.882812 23.207031 29.882812 15 C 29.882812 6.792969 23.207031 0.117188 15 0.117188 Z M 15 28.945312 C 7.3125 28.945312 1.054688 22.6875 1.054688 15 C 1.054688 7.3125 7.3125 1.054688 15 1.054688 C 22.6875 1.054688 28.945312 7.3125 28.945312 15 C 28.945312 22.6875 22.6875 28.945312 15 28.945312 Z M 15 28.945312 "/>
</g>
</svg>
